<?xml version="1.0" encoding="utf-8"?>
<!-- Generator: Adobe Illustrator 16.0.0, SVG Export Plug-In . SVG Version: 6.00 Build 0)  -->
<!DOCTYPE svg PUBLIC "-//W3C//DTD SVG 1.1//EN" "http://www.w3.org/Graphics/SVG/1.1/DTD/svg11.dtd">
<svg version="1.1" id="Layer_1" xmlns="http://www.w3.org/2000/svg" xmlns:xlink="http://www.w3.org/1999/xlink" x="0px" y="0px"
	 width="117.375px" height="31px" viewBox="0 0 117.375 31" enable-background="new 0 0 117.375 31" xml:space="preserve">
<g>
	<g>
		<defs>
			<rect id="SVGID_1_" y="0.153" width="35" height="31"/>
		</defs>
		<clipPath id="SVGID_2_">
			<use xlink:href="#SVGID_1_"  overflow="visible"/>
		</clipPath>
		<g clip-path="url(#SVGID_2_)">
			<path fill="#FF6B55" d="M8.166,0.318C6,0.646,4.287,1.507,2.763,3.031C1.304,4.489,0.451,6.115,0.108,8.098
				c-0.131,0.751-0.146,2.334-0.029,3.157c0.43,3.106,2.246,6.513,5.323,9.977C8.18,24.36,12.3,27.787,16.5,30.448
				c0.51,0.328,0.962,0.591,0.999,0.591c0.095,0,1.028-0.583,2.341-1.466c5.119-3.449,9.625-7.664,12.141-11.368
				C34.016,15.209,35,12.46,35,9.747c0-2.676-0.89-4.842-2.764-6.716c-1.32-1.32-2.618-2.058-4.419-2.517
				c-0.897-0.232-2.603-0.313-3.529-0.183c-2.552,0.372-4.769,1.691-6.286,3.741c-0.248,0.328-0.474,0.604-0.503,0.604
				s-0.248-0.262-0.489-0.583c-1.487-2.013-3.565-3.289-6.03-3.719C10.39,0.274,8.669,0.238,8.166,0.318z M14.502,5.955
				c1.05,0.481,1.852,1.83,1.954,3.318c0.081,1.122-0.226,2.041-0.853,2.609c-0.802,0.723-1.801,0.591-2.691-0.351
				c-1.538-1.626-1.437-4.842,0.175-5.585C13.474,5.765,14.094,5.772,14.502,5.955z M22.086,6.049
				c1.152,0.767,1.451,2.853,0.634,4.543c-0.292,0.612-0.853,1.247-1.334,1.502c-1.218,0.656-2.414-0.044-2.764-1.604
				c-0.387-1.743,0.408-3.792,1.743-4.463c0.394-0.204,0.51-0.228,0.933-0.204C21.678,5.845,21.845,5.896,22.086,6.049z
				 M9.595,11.285c0.313,0.117,0.54,0.285,0.896,0.642c1.08,1.087,1.473,2.713,0.919,3.836c-0.642,1.32-2.392,1.058-3.398-0.495
				c-0.992-1.531-0.89-3.392,0.219-3.968C8.64,11.089,9.056,11.089,9.595,11.285z M26.76,11.293
				c1.626,0.824,0.926,4.192-1.058,5.134c-0.736,0.351-1.589,0.175-1.976-0.4c-0.744-1.123-0.401-2.909,0.78-4.1
				C25.258,11.169,26.067,10.942,26.76,11.293z M18.593,14.37c2.45,0.444,4.434,2.333,5.221,4.965
				c0.183,0.592,0.197,0.773,0.205,1.859c0.015,2.137-0.357,3.005-1.342,3.173c-0.438,0.073-0.686-0.015-1.334-0.46
				c-0.328-0.219-0.86-0.523-1.188-0.678c-2.078-0.977-4.616-0.715-6.482,0.678c-0.533,0.401-0.89,0.525-1.313,0.467
				c-1.014-0.152-1.393-1.021-1.378-3.18c0.007-1.086,0.022-1.268,0.204-1.859C12.228,15.865,15.334,13.779,18.593,14.37z"/>
		</g>
	</g>
</g>
<path display="none" fill="#001D23" d="M48.077,20.296c0.196,0.188,0.473,0.37,0.83,0.543c0.357,0.155,0.83,0.231,1.418,0.231
	c0.981,0,1.792-0.24,2.435-0.723c0.66-0.5,0.99-1.189,0.99-2.068c0-0.639-0.214-1.172-0.642-1.604
	c-0.41-0.43-0.937-0.827-1.579-1.188c-0.642-0.362-1.329-0.715-2.06-1.06c-0.731-0.362-1.418-0.784-2.06-1.267
	c-0.643-0.482-1.178-1.051-1.605-1.706c-0.41-0.672-0.615-1.5-0.615-2.482c0-0.845,0.16-1.577,0.481-2.198
	c0.321-0.62,0.758-1.129,1.311-1.525c0.571-0.414,1.24-0.715,2.006-0.905c0.767-0.207,1.597-0.31,2.488-0.31
	c1.088,0,2.096,0.078,3.023,0.232c0.945,0.138,1.792,0.362,2.542,0.672c-0.018,0.345-0.054,0.741-0.107,1.189
	c-0.036,0.448-0.089,0.896-0.16,1.344c-0.072,0.431-0.152,0.845-0.241,1.241c-0.072,0.379-0.143,0.698-0.214,0.957h-1.097
	L53.99,6.128c-0.214-0.104-0.535-0.198-0.963-0.285c-0.41-0.086-0.838-0.129-1.284-0.129c-0.749,0-1.382,0.189-1.899,0.568
	c-0.518,0.379-0.776,0.931-0.776,1.655c0,0.655,0.214,1.215,0.642,1.68c0.428,0.448,0.963,0.862,1.605,1.241
	s1.338,0.758,2.087,1.138c0.767,0.362,1.472,0.784,2.114,1.267s1.177,1.051,1.605,1.706c0.428,0.638,0.642,1.432,0.642,2.379
	c0,1.725-0.606,3.061-1.819,4.008c-1.195,0.932-2.961,1.396-5.297,1.396c-0.571,0-1.15-0.035-1.739-0.104
	c-0.571-0.067-1.115-0.164-1.632-0.283c-0.518-0.121-0.981-0.25-1.392-0.389c-0.392-0.139-0.687-0.285-0.883-0.438
	c0.018-0.396,0.063-0.819,0.134-1.269c0.071-0.465,0.143-0.922,0.214-1.369c0.089-0.465,0.179-0.905,0.268-1.318
	c0.089-0.413,0.179-0.775,0.268-1.086h1.097L48.077,20.296z"/>
<path display="none" fill="#001D23" d="M70.996,20.348c-0.125,0.346-0.33,0.663-0.615,0.957c-0.285,0.275-0.634,0.525-1.044,0.75
	c-0.394,0.223-0.847,0.396-1.364,0.516c-0.5,0.121-1.025,0.183-1.578,0.183c-1.178,0-2.194-0.155-3.051-0.465
	c-0.838-0.328-1.533-0.785-2.087-1.371c-0.553-0.604-0.963-1.317-1.229-2.146c-0.269-0.846-0.401-1.775-0.401-2.792
	c0-2.189,0.615-3.861,1.847-5.016c1.248-1.172,3.014-1.758,5.297-1.758c0.875,0,1.678,0.095,2.407,0.285
	c0.732,0.172,1.339,0.379,1.82,0.62c-0.036,0.293-0.09,0.621-0.161,0.982c-0.054,0.345-0.124,0.698-0.214,1.06
	c-0.071,0.345-0.16,0.689-0.269,1.034c-0.106,0.328-0.213,0.604-0.319,0.828h-1.312l-1.125-3.077
	c-0.125-0.086-0.258-0.146-0.4-0.181c-0.143-0.052-0.356-0.078-0.643-0.078c-0.463,0-0.865,0.086-1.203,0.259
	c-0.34,0.155-0.634,0.431-0.884,0.827c-0.231,0.396-0.409,0.922-0.534,1.577c-0.107,0.655-0.162,1.465-0.162,2.43
	c0,0.708,0.08,1.361,0.242,1.965c0.16,0.586,0.4,1.104,0.721,1.551c0.34,0.432,0.759,0.775,1.259,1.035
	c0.5,0.24,1.087,0.361,1.765,0.361c0.625,0,1.169-0.086,1.633-0.26c0.463-0.172,0.855-0.379,1.178-0.619L70.996,20.348z"/>
<path display="none" fill="#001D23" d="M72.191,15.979c0-1.052,0.162-1.991,0.481-2.818c0.339-0.844,0.813-1.56,1.418-2.146
	c0.625-0.586,1.373-1.034,2.248-1.345c0.873-0.31,1.863-0.465,2.97-0.465c1.25,0,2.318,0.172,3.211,0.517
	c0.91,0.328,1.649,0.793,2.221,1.396c0.589,0.586,1.018,1.301,1.285,2.146c0.268,0.827,0.399,1.732,0.399,2.715
	c0,1.051-0.159,2-0.479,2.844c-0.322,0.827-0.795,1.532-1.42,2.118c-0.605,0.588-1.354,1.035-2.246,1.347
	c-0.875,0.31-1.864,0.465-2.971,0.465c-1.213,0-2.266-0.164-3.156-0.491c-0.894-0.345-1.633-0.81-2.221-1.396
	c-0.59-0.603-1.025-1.318-1.312-2.146C72.335,17.874,72.191,16.961,72.191,15.979z M76.34,15.979c0,0.775,0.045,1.49,0.133,2.146
	c0.107,0.639,0.286,1.182,0.535,1.629c0.25,0.448,0.59,0.803,1.018,1.061c0.429,0.242,0.98,0.361,1.658,0.361
	c0.394,0,0.75-0.086,1.07-0.259c0.321-0.188,0.598-0.481,0.83-0.879c0.23-0.414,0.4-0.947,0.508-1.603
	c0.125-0.674,0.188-1.492,0.188-2.457c0-0.793-0.053-1.508-0.159-2.146c-0.091-0.638-0.261-1.181-0.509-1.629
	c-0.231-0.448-0.555-0.792-0.965-1.034c-0.41-0.258-0.926-0.388-1.551-0.388c-0.465,0-0.865,0.095-1.205,0.285
	c-0.338,0.172-0.623,0.465-0.854,0.879c-0.231,0.396-0.41,0.931-0.535,1.603C76.393,14.203,76.34,15.013,76.34,15.979z"/>
<path display="none" fill="#001D23" d="M88.078,15.979c0-1.052,0.16-1.991,0.482-2.818c0.338-0.844,0.811-1.56,1.418-2.146
	c0.623-0.586,1.373-1.034,2.246-1.345c0.875-0.31,1.864-0.465,2.971-0.465c1.248,0,2.318,0.172,3.211,0.517
	c0.908,0.328,1.65,0.793,2.22,1.396c0.589,0.586,1.017,1.301,1.285,2.146c0.267,0.827,0.401,1.732,0.401,2.715
	c0,1.051-0.16,2-0.482,2.844c-0.321,0.827-0.793,1.532-1.418,2.118c-0.605,0.588-1.355,1.035-2.247,1.347
	c-0.874,0.31-1.864,0.465-2.97,0.465c-1.213,0-2.266-0.164-3.157-0.491c-0.892-0.345-1.632-0.81-2.222-1.396
	c-0.588-0.603-1.024-1.318-1.312-2.146C88.221,17.874,88.078,16.961,88.078,15.979z M92.227,15.979c0,0.775,0.043,1.49,0.133,2.146
	c0.107,0.639,0.285,1.182,0.535,1.629c0.25,0.448,0.588,0.803,1.018,1.061c0.428,0.242,0.98,0.361,1.658,0.361
	c0.394,0,0.748-0.086,1.07-0.259c0.32-0.188,0.598-0.481,0.828-0.879c0.232-0.414,0.402-0.947,0.51-1.603
	c0.125-0.674,0.188-1.492,0.188-2.457c0-0.793-0.055-1.508-0.161-2.146c-0.088-0.638-0.258-1.181-0.508-1.629
	c-0.231-0.448-0.554-0.792-0.963-1.034c-0.41-0.258-0.929-0.388-1.554-0.388c-0.463,0-0.863,0.095-1.203,0.285
	c-0.338,0.172-0.625,0.465-0.855,0.879c-0.23,0.396-0.41,0.931-0.535,1.603C92.279,14.203,92.227,15.013,92.227,15.979z"/>
<path display="none" fill="#001D23" d="M104.927,5.146l-2.032-0.207V3.931c0.269-0.104,0.614-0.207,1.043-0.31
	c0.445-0.104,0.9-0.19,1.364-0.259c0.482-0.086,0.945-0.155,1.392-0.207c0.465-0.069,0.855-0.121,1.178-0.155h0.908v8.945h0.056
	c0.354-0.862,0.899-1.534,1.632-2.017c0.732-0.483,1.598-0.724,2.596-0.724c1.569,0,2.791,0.526,3.666,1.577
	c0.873,1.051,1.311,2.646,1.311,4.783c0,2.361-0.65,4.137-1.953,5.327c-1.284,1.188-3.175,1.782-5.672,1.782
	c-0.446,0-0.945-0.034-1.498-0.104c-0.553-0.051-1.088-0.119-1.605-0.205c-0.518-0.088-0.998-0.19-1.444-0.312
	c-0.429-0.12-0.739-0.241-0.937-0.362V5.146H104.927z M111.322,11.273c-0.678,0-1.223,0.241-1.633,0.724
	c-0.41,0.465-0.713,1.06-0.91,1.784v6.851c0.25,0.173,0.554,0.31,0.91,0.413c0.375,0.104,0.795,0.156,1.258,0.156
	c1.017,0,1.757-0.439,2.221-1.319c0.482-0.879,0.723-2.257,0.723-4.136c0-1.362-0.197-2.447-0.589-3.257
	C112.927,11.678,112.268,11.273,111.322,11.273z"/>
<path display="none" fill="#001D23" d="M119.488,11.144c-0.268-0.069-0.518-0.155-0.748-0.258c-0.215-0.104-0.438-0.224-0.67-0.362
	V9.515h7.037v0.982c-0.375,0.241-0.883,0.457-1.525,0.646l2.702,6.489l0.454,1.654h0.055l0.428-1.681l2.088-6.463
	c-0.535-0.104-1.025-0.31-1.473-0.62V9.515H133v1.008c-0.375,0.241-0.883,0.448-1.525,0.62l-4.361,11.298
	c-0.428,1.104-0.854,2-1.282,2.688c-0.429,0.706-0.856,1.267-1.285,1.681c-0.428,0.414-0.854,0.697-1.282,0.854
	c-0.43,0.172-0.857,0.284-1.285,0.336c-0.179-0.155-0.338-0.354-0.481-0.595c-0.142-0.224-0.267-0.474-0.374-0.749
	c-0.107-0.26-0.197-0.526-0.268-0.803c-0.071-0.275-0.117-0.533-0.135-0.775l0.348-0.62h3.265c0.161-0.241,0.295-0.499,0.401-0.774
	c0.125-0.276,0.268-0.689,0.429-1.242L119.488,11.144z"/>
<text transform="matrix(1 0 0 1 42.125 23.251)" font-family="'RobotoSlab-Regular'" font-size="26">Fluffy</text>
</svg>
